<?xml version="1.0" encoding="utf-8"?>
<svg xmlns="http://www.w3.org/2000/svg" width="500" zoomAndPan="magnify" viewBox="-14.737 0 389.737 246.85" height="500" preserveAspectRatio="xMidYMid meet" version="1.0">
  <defs>
    <g/>
    <clipPath id="96deeedc65">
      <path d="M 148 50 L 163 50 L 163 64 L 148 64 Z M 148 50 " clip-rule="nonzero"/>
    </clipPath>
    <clipPath id="2c8799123d">
      <path d="M 69.894531 23.492188 L 212.742188 0.0507812 L 248.183594 216.007812 L 105.335938 239.453125 Z M 69.894531 23.492188 " clip-rule="nonzero"/>
    </clipPath>
    <clipPath id="d8b51b6251">
      <path d="M 69.894531 23.492188 L 212.742188 0.0507812 L 248.183594 216.007812 L 105.335938 239.453125 Z M 69.894531 23.492188 " clip-rule="nonzero"/>
    </clipPath>
    <clipPath id="88b245c6c9">
      <path d="M 81 14 L 223 14 L 223 115 L 81 115 Z M 81 14 " clip-rule="nonzero"/>
    </clipPath>
    <clipPath id="91e62a511b">
      <path d="M 69.894531 23.492188 L 212.742188 0.0507812 L 248.183594 216.007812 L 105.335938 239.453125 Z M 69.894531 23.492188 " clip-rule="nonzero"/>
    </clipPath>
    <clipPath id="8960722ab5">
      <path d="M 69.894531 23.492188 L 212.742188 0.0507812 L 248.183594 216.007812 L 105.335938 239.453125 Z M 69.894531 23.492188 " clip-rule="nonzero"/>
    </clipPath>
    <clipPath id="c7fbed5116">
      <path d="M 70.089844 23.460938 L 212.828125 0.0351562 L 230.269531 106.308594 L 87.53125 129.734375 Z M 70.089844 23.460938 " clip-rule="nonzero"/>
    </clipPath>
    <clipPath id="038a5b0d7a">
      <path d="M 129 57 L 163 57 L 163 233 L 129 233 Z M 129 57 " clip-rule="nonzero"/>
    </clipPath>
    <clipPath id="1d646d29b8">
      <path d="M 69.894531 23.492188 L 212.742188 0.0507812 L 248.183594 216.007812 L 105.335938 239.453125 Z M 69.894531 23.492188 " clip-rule="nonzero"/>
    </clipPath>
    <clipPath id="7d0d48a3fb">
      <path d="M 69.894531 23.492188 L 212.742188 0.0507812 L 248.183594 216.007812 L 105.335938 239.453125 Z M 69.894531 23.492188 " clip-rule="nonzero"/>
    </clipPath>
    <clipPath id="f35a7de083">
      <path d="M 114.304688 63.433594 L 157.808594 56.292969 L 185.660156 226.003906 L 142.15625 233.140625 Z M 114.304688 63.433594 " clip-rule="nonzero"/>
    </clipPath>
  </defs>
  <g fill="#003c25" fill-opacity="1">
    <g transform="translate(9.104037, 143.524247)">
      <g>
        <path d="M 33.515625 -11.421875 C 35.441406 -11.421875 37.3125 -11.707031 39.125 -12.28125 C 40.9375 -12.863281 42.265625 -13.425781 43.109375 -13.96875 L 44.390625 -14.84375 L 49.765625 -4.09375 C 49.585938 -3.957031 49.335938 -3.773438 49.015625 -3.546875 C 48.703125 -3.328125 47.972656 -2.914062 46.828125 -2.3125 C 45.691406 -1.707031 44.472656 -1.179688 43.171875 -0.734375 C 41.878906 -0.285156 40.179688 0.113281 38.078125 0.46875 C 35.972656 0.820312 33.800781 1 31.5625 1 C 26.414062 1 21.535156 -0.257812 16.921875 -2.78125 C 12.304688 -5.3125 8.585938 -8.789062 5.765625 -13.21875 C 2.953125 -17.65625 1.546875 -22.445312 1.546875 -27.59375 C 1.546875 -31.488281 2.375 -35.226562 4.03125 -38.8125 C 5.6875 -42.394531 7.890625 -45.460938 10.640625 -48.015625 C 13.398438 -50.566406 16.613281 -52.601562 20.28125 -54.125 C 23.945312 -55.644531 27.707031 -56.40625 31.5625 -56.40625 C 35.144531 -56.40625 38.445312 -55.976562 41.46875 -55.125 C 44.488281 -54.28125 46.625 -53.429688 47.875 -52.578125 L 49.765625 -51.3125 L 44.390625 -40.5625 C 44.078125 -40.832031 43.609375 -41.15625 42.984375 -41.53125 C 42.359375 -41.914062 41.101562 -42.421875 39.21875 -43.046875 C 37.34375 -43.671875 35.441406 -43.984375 33.515625 -43.984375 C 30.460938 -43.984375 27.726562 -43.488281 25.3125 -42.5 C 22.894531 -41.519531 20.976562 -40.222656 19.5625 -38.609375 C 18.15625 -37.003906 17.082031 -35.269531 16.34375 -33.40625 C 15.613281 -31.550781 15.25 -29.660156 15.25 -27.734375 C 15.25 -23.523438 16.828125 -19.753906 19.984375 -16.421875 C 23.140625 -13.085938 27.648438 -11.421875 33.515625 -11.421875 Z M 33.515625 -11.421875 "/>
      </g>
    </g>
  </g>
  <g fill="#003c25" fill-opacity="1">
    <g transform="translate(59.662871, 143.524247)">
      <g>
        <path d="M 7.28125 -4.09375 C 3.457031 -7.5 1.546875 -11.863281 1.546875 -17.1875 C 1.546875 -22.519531 3.535156 -26.894531 7.515625 -30.3125 C 11.503906 -33.738281 16.429688 -35.453125 22.296875 -35.453125 C 28.066406 -35.453125 32.929688 -33.726562 36.890625 -30.28125 C 40.859375 -26.832031 42.84375 -22.46875 42.84375 -17.1875 C 42.84375 -11.90625 40.90625 -7.550781 37.03125 -4.125 C 33.164062 -0.707031 28.253906 1 22.296875 1 C 16.117188 1 11.113281 -0.695312 7.28125 -4.09375 Z M 16.484375 -23.03125 C 14.941406 -21.507812 14.171875 -19.5625 14.171875 -17.1875 C 14.171875 -14.8125 14.910156 -12.875 16.390625 -11.375 C 17.867188 -9.882812 19.816406 -9.140625 22.234375 -9.140625 C 24.554688 -9.140625 26.46875 -9.898438 27.96875 -11.421875 C 29.46875 -12.941406 30.21875 -14.863281 30.21875 -17.1875 C 30.21875 -19.5625 29.445312 -21.507812 27.90625 -23.03125 C 26.363281 -24.550781 24.472656 -25.3125 22.234375 -25.3125 C 19.941406 -25.3125 18.023438 -24.550781 16.484375 -23.03125 Z M 16.484375 -23.03125 "/>
      </g>
    </g>
  </g>
  <g fill="#003c25" fill-opacity="1">
    <g transform="translate(104.044524, 143.524247)">
      <g>
        <path d="M 22.359375 -25.71875 C 20.117188 -25.71875 18.191406 -24.890625 16.578125 -23.234375 C 14.972656 -21.578125 14.171875 -19.585938 14.171875 -17.265625 C 14.171875 -14.890625 14.972656 -12.875 16.578125 -11.21875 C 18.191406 -9.5625 20.117188 -8.734375 22.359375 -8.734375 C 23.429688 -8.734375 24.445312 -8.863281 25.40625 -9.125 C 26.375 -9.394531 27.082031 -9.664062 27.53125 -9.9375 L 28.140625 -10.34375 L 32.171875 -2.078125 C 31.859375 -1.859375 31.421875 -1.578125 30.859375 -1.234375 C 30.296875 -0.898438 29.019531 -0.445312 27.03125 0.125 C 25.039062 0.707031 22.898438 1 20.609375 1 C 15.554688 1 11.113281 -0.773438 7.28125 -4.328125 C 3.457031 -7.890625 1.546875 -12.15625 1.546875 -17.125 C 1.546875 -22.132812 3.457031 -26.441406 7.28125 -30.046875 C 11.113281 -33.648438 15.554688 -35.453125 20.609375 -35.453125 C 22.898438 -35.453125 25.003906 -35.179688 26.921875 -34.640625 C 28.847656 -34.109375 30.21875 -33.578125 31.03125 -33.046875 L 32.171875 -32.234375 L 28.140625 -24.109375 C 26.660156 -25.179688 24.734375 -25.71875 22.359375 -25.71875 Z M 22.359375 -25.71875 "/>
      </g>
    </g>
  </g>
  <g fill="#003c25" fill-opacity="1">
    <g transform="translate(137.011838, 143.524247)">
      <g>
        <path d="M 7.28125 -4.09375 C 3.457031 -7.5 1.546875 -11.863281 1.546875 -17.1875 C 1.546875 -22.519531 3.535156 -26.894531 7.515625 -30.3125 C 11.503906 -33.738281 16.429688 -35.453125 22.296875 -35.453125 C 28.066406 -35.453125 32.929688 -33.726562 36.890625 -30.28125 C 40.859375 -26.832031 42.84375 -22.46875 42.84375 -17.1875 C 42.84375 -11.90625 40.90625 -7.550781 37.03125 -4.125 C 33.164062 -0.707031 28.253906 1 22.296875 1 C 16.117188 1 11.113281 -0.695312 7.28125 -4.09375 Z M 16.484375 -23.03125 C 14.941406 -21.507812 14.171875 -19.5625 14.171875 -17.1875 C 14.171875 -14.8125 14.910156 -12.875 16.390625 -11.375 C 17.867188 -9.882812 19.816406 -9.140625 22.234375 -9.140625 C 24.554688 -9.140625 26.46875 -9.898438 27.96875 -11.421875 C 29.46875 -12.941406 30.21875 -14.863281 30.21875 -17.1875 C 30.21875 -19.5625 29.445312 -21.507812 27.90625 -23.03125 C 26.363281 -24.550781 24.472656 -25.3125 22.234375 -25.3125 C 19.941406 -25.3125 18.023438 -24.550781 16.484375 -23.03125 Z M 16.484375 -23.03125 "/>
      </g>
    </g>
  </g>
  <g fill="#003c25" fill-opacity="1">
    <g transform="translate(181.393491, 143.524247)">
      <g>
        <path d="M 4.03125 0 L 4.03125 -57.75 L 15.921875 -57.75 L 15.921875 0 Z M 4.03125 0 "/>
      </g>
    </g>
  </g>
  <g fill="#003c25" fill-opacity="1">
    <g transform="translate(201.335023, 143.524247)">
      <g>
        <path d="M 30.15625 -34.453125 L 43.859375 -34.453125 L 16.796875 17.453125 L 3.09375 17.453125 L 14.96875 -5.375 L -1.34375 -34.453125 L 12.359375 -34.453125 L 21.953125 -16.796875 Z M 30.15625 -34.453125 "/>
      </g>
    </g>
  </g>
  <g fill="#003c25" fill-opacity="1">
    <g transform="translate(243.836675, 143.524247)">
      <g>
        <path d="M 6.046875 -34.453125 L 6.046875 -47.28125 L 17.9375 -47.28125 L 17.9375 -34.453125 L 25.1875 -34.453125 L 25.1875 -25.390625 L 17.9375 -25.390625 L 17.9375 -14.4375 C 17.9375 -11.257812 18.828125 -9.671875 20.609375 -9.671875 C 21.054688 -9.671875 21.523438 -9.757812 22.015625 -9.9375 C 22.515625 -10.113281 22.898438 -10.289062 23.171875 -10.46875 L 23.578125 -10.75 L 26.53125 -1.140625 C 23.976562 0.285156 21.066406 1 17.796875 1 C 15.554688 1 13.628906 0.609375 12.015625 -0.171875 C 10.410156 -0.953125 9.191406 -2.003906 8.359375 -3.328125 C 7.535156 -4.648438 6.941406 -6.035156 6.578125 -7.484375 C 6.222656 -8.941406 6.046875 -10.5 6.046875 -12.15625 L 6.046875 -25.390625 L 1.078125 -25.390625 L 1.078125 -34.453125 Z M 6.046875 -34.453125 "/>
      </g>
    </g>
  </g>
  <g fill="#003c25" fill-opacity="1">
    <g transform="translate(270.358233, 143.524247)">
      <g>
        <path d="M 5.171875 -53.65625 C 6.554688 -55.039062 8.210938 -55.734375 10.140625 -55.734375 C 12.066406 -55.734375 13.722656 -55.039062 15.109375 -53.65625 C 16.492188 -52.269531 17.1875 -50.613281 17.1875 -48.6875 C 17.1875 -46.757812 16.492188 -45.101562 15.109375 -43.71875 C 13.722656 -42.332031 12.066406 -41.640625 10.140625 -41.640625 C 8.210938 -41.640625 6.554688 -42.332031 5.171875 -43.71875 C 3.785156 -45.101562 3.09375 -46.757812 3.09375 -48.6875 C 3.09375 -50.613281 3.785156 -52.269531 5.171875 -53.65625 Z M 4.03125 -34.453125 L 4.03125 0 L 15.921875 0 L 15.921875 -34.453125 Z M 4.03125 -34.453125 "/>
      </g>
    </g>
  </g>
  <g fill="#003c25" fill-opacity="1">
    <g transform="translate(290.635474, 143.524247)">
      <g>
        <path d="M 22.359375 -25.71875 C 20.117188 -25.71875 18.191406 -24.890625 16.578125 -23.234375 C 14.972656 -21.578125 14.171875 -19.585938 14.171875 -17.265625 C 14.171875 -14.890625 14.972656 -12.875 16.578125 -11.21875 C 18.191406 -9.5625 20.117188 -8.734375 22.359375 -8.734375 C 23.429688 -8.734375 24.445312 -8.863281 25.40625 -9.125 C 26.375 -9.394531 27.082031 -9.664062 27.53125 -9.9375 L 28.140625 -10.34375 L 32.171875 -2.078125 C 31.859375 -1.859375 31.421875 -1.578125 30.859375 -1.234375 C 30.296875 -0.898438 29.019531 -0.445312 27.03125 0.125 C 25.039062 0.707031 22.898438 1 20.609375 1 C 15.554688 1 11.113281 -0.773438 7.28125 -4.328125 C 3.457031 -7.890625 1.546875 -12.15625 1.546875 -17.125 C 1.546875 -22.132812 3.457031 -26.441406 7.28125 -30.046875 C 11.113281 -33.648438 15.554688 -35.453125 20.609375 -35.453125 C 22.898438 -35.453125 25.003906 -35.179688 26.921875 -34.640625 C 28.847656 -34.109375 30.21875 -33.578125 31.03125 -33.046875 L 32.171875 -32.234375 L 28.140625 -24.109375 C 26.660156 -25.179688 24.734375 -25.71875 22.359375 -25.71875 Z M 22.359375 -25.71875 "/>
      </g>
    </g>
  </g>
  <g fill="#003c25" fill-opacity="1">
    <g transform="translate(323.602771, 143.524247)">
      <g>
        <path d="M 19 -35.453125 C 20.96875 -35.453125 22.914062 -35.226562 24.84375 -34.78125 C 26.769531 -34.332031 28.203125 -33.882812 29.140625 -33.4375 L 30.5625 -32.765625 L 26.65625 -24.984375 C 23.96875 -26.410156 21.414062 -27.125 19 -27.125 C 17.65625 -27.125 16.703125 -26.976562 16.140625 -26.6875 C 15.585938 -26.40625 15.3125 -25.859375 15.3125 -25.046875 C 15.3125 -24.867188 15.332031 -24.691406 15.375 -24.515625 C 15.425781 -24.335938 15.515625 -24.164062 15.640625 -24 C 15.773438 -23.84375 15.898438 -23.707031 16.015625 -23.59375 C 16.128906 -23.488281 16.316406 -23.367188 16.578125 -23.234375 C 16.847656 -23.097656 17.0625 -22.992188 17.21875 -22.921875 C 17.375 -22.859375 17.628906 -22.757812 17.984375 -22.625 C 18.347656 -22.5 18.617188 -22.398438 18.796875 -22.328125 C 18.984375 -22.265625 19.285156 -22.164062 19.703125 -22.03125 C 20.128906 -21.894531 20.457031 -21.804688 20.6875 -21.765625 C 22.070312 -21.359375 23.28125 -20.90625 24.3125 -20.40625 C 25.34375 -19.914062 26.425781 -19.242188 27.5625 -18.390625 C 28.707031 -17.546875 29.59375 -16.472656 30.21875 -15.171875 C 30.84375 -13.878906 31.15625 -12.40625 31.15625 -10.75 C 31.15625 -2.914062 25.71875 1 14.84375 1 C 12.375 1 10.03125 0.617188 7.8125 -0.140625 C 5.601562 -0.898438 4.003906 -1.660156 3.015625 -2.421875 L 1.546875 -3.625 L 6.375 -11.75 C 6.738281 -11.4375 7.207031 -11.066406 7.78125 -10.640625 C 8.363281 -10.210938 9.414062 -9.628906 10.9375 -8.890625 C 12.46875 -8.160156 13.789062 -7.796875 14.90625 -7.796875 C 17.375 -7.796875 18.609375 -8.625 18.609375 -10.28125 C 18.609375 -11.039062 18.289062 -11.628906 17.65625 -12.046875 C 17.03125 -12.472656 15.96875 -12.953125 14.46875 -13.484375 C 12.96875 -14.023438 11.796875 -14.519531 10.953125 -14.96875 C 8.796875 -16.09375 7.09375 -17.359375 5.84375 -18.765625 C 4.59375 -20.179688 3.96875 -22.050781 3.96875 -24.375 C 3.96875 -27.863281 5.320312 -30.582031 8.03125 -32.53125 C 10.738281 -34.476562 14.394531 -35.453125 19 -35.453125 Z M 19 -35.453125 "/>
      </g>
    </g>
  </g>
  <g fill="#003c25" fill-opacity="1">
    <g transform="translate(356.645395, 143.524247)">
      <g/>
    </g>
  </g>
  <g clip-path="url(#96deeedc65)">
    <g clip-path="url(#2c8799123d)">
      <g clip-path="url(#d8b51b6251)">
        <path fill="#5eb23f" d="M 162.664062 55.816406 C 163.28125 59.574219 160.734375 63.117188 156.976562 63.734375 C 153.222656 64.351562 149.675781 61.804688 149.058594 58.046875 C 148.441406 54.292969 150.988281 50.75 154.746094 50.132812 C 158.5 49.515625 162.046875 52.058594 162.664062 55.816406 " fill-opacity="1" fill-rule="nonzero"/>
      </g>
    </g>
  </g>
  <g clip-path="url(#88b245c6c9)">
    <g clip-path="url(#91e62a511b)">
      <g clip-path="url(#8960722ab5)">
        <g clip-path="url(#c7fbed5116)">
          <path fill="#5eb23f" d="M 157.148438 53.742188 C 157.148438 53.742188 165.59375 72.015625 155.574219 88.492188 C 155.574219 88.492188 167.375 80.347656 168.972656 69.046875 C 168.972656 69.046875 186.382812 86.882812 180.554688 114.398438 C 180.554688 114.398438 201.707031 89.886719 183.871094 63.152344 C 183.871094 63.152344 211.144531 75.921875 214.832031 100.496094 C 214.832031 100.496094 225.632812 54.917969 170.261719 45.382812 C 170.261719 45.382812 202.4375 43.894531 222.601562 59.554688 C 222.601562 59.554688 205.777344 28.515625 172.304688 34.699219 C 172.304688 34.699219 179.492188 23.863281 191.355469 22.605469 C 191.355469 22.605469 172.058594 20.597656 161.617188 34.730469 C 161.617188 34.730469 146.367188 0.671875 100.101562 21.371094 C 100.101562 21.371094 136.421875 22.558594 147.855469 41.46875 C 147.855469 41.46875 94.285156 19.566406 86.742188 59.777344 C 86.742188 59.777344 105.019531 45.050781 131.871094 48.921875 C 131.871094 48.921875 89.148438 59.726562 81.898438 95.410156 C 81.898438 95.410156 93.578125 81.453125 113.789062 74.308594 C 134.734375 66.90625 152.617188 53.449219 152.617188 53.449219 L 157.148438 53.742188 " fill-opacity="1" fill-rule="nonzero"/>
        </g>
      </g>
    </g>
  </g>
  <g clip-path="url(#038a5b0d7a)">
    <g clip-path="url(#1d646d29b8)">
      <g clip-path="url(#7d0d48a3fb)">
        <g clip-path="url(#f35a7de083)">
          <path fill="#5eb23f" d="M 157.824219 58.046875 C 157.222656 58.933594 156.621094 59.847656 156.027344 60.785156 C 155.4375 61.710938 154.863281 62.667969 154.289062 63.640625 C 152.207031 67.1875 150.210938 71.070312 148.371094 75.226562 C 146.070312 80.542969 143.984375 86.292969 142.367188 92.382812 C 140.710938 98.464844 139.484375 104.867188 138.679688 111.410156 C 138.292969 114.679688 138.019531 117.996094 137.84375 121.316406 C 137.785156 122.980469 137.699219 124.652344 137.691406 126.285156 C 137.683594 127.109375 137.664062 127.921875 137.679688 128.792969 L 137.703125 131.308594 C 137.890625 138.003906 138.441406 144.671875 139.28125 151.199219 C 140.214844 157.726562 141.375 164.109375 142.757812 170.238281 C 144.195312 176.359375 145.699219 182.253906 147.378906 187.785156 C 148.167969 190.558594 149.054688 193.238281 149.859375 195.835938 C 150.695312 198.425781 151.554688 200.925781 152.347656 203.320312 C 153.191406 205.707031 154.003906 208 154.765625 210.179688 C 155.570312 212.351562 156.324219 214.410156 157.039062 216.339844 C 158.496094 220.210938 159.777344 223.578125 160.859375 226.332031 C 161.375 227.640625 161.835938 228.816406 162.246094 229.84375 L 146.964844 232.355469 C 146.859375 232.015625 146.75 231.667969 146.640625 231.316406 C 145.738281 228.421875 144.675781 224.898438 143.476562 220.855469 C 142.894531 218.828125 142.269531 216.664062 141.617188 214.390625 C 140.988281 212.101562 140.328125 209.695312 139.636719 207.179688 C 138.992188 204.652344 138.296875 202.023438 137.632812 199.289062 C 136.992188 196.546875 136.273438 193.730469 135.664062 190.792969 C 134.339844 184.945312 133.210938 178.703125 132.183594 172.230469 C 131.199219 165.738281 130.460938 158.988281 129.984375 152.101562 C 129.59375 145.210938 129.519531 138.191406 129.832031 131.191406 L 129.992188 128.578125 C 130.039062 127.734375 130.121094 126.835938 130.199219 125.953125 C 130.332031 124.167969 130.539062 122.4375 130.734375 120.703125 C 131.175781 117.234375 131.699219 113.792969 132.359375 110.410156 C 133.683594 103.644531 135.441406 97.089844 137.605469 90.914062 C 139.738281 84.722656 142.324219 78.9375 145.085938 73.632812 C 147.214844 69.621094 149.480469 65.890625 151.796875 62.5 C 152.527344 61.429688 153.257812 60.398438 154 59.394531 C 154.535156 58.664062 155.078125 57.953125 155.617188 57.265625 C 156.335938 57.601562 157.070312 57.851562 157.824219 58.046875 " fill-opacity="1" fill-rule="nonzero"/>
        </g>
      </g>
    </g>
  </g>
  <g fill="#5eb23f" fill-opacity="1">
    <g transform="translate(276.169852, 217.382834)">
      <g>
        <path d="M 30.703125 -52.890625 L 52.0625 0 L 39.109375 0 L 35.203125 -10.578125 L 15.0625 -10.578125 L 11.15625 0 L -1.796875 0 L 19.546875 -52.890625 Z M 31.09375 -21.15625 L 25.1875 -36.546875 L 25.0625 -36.546875 L 19.171875 -21.15625 Z M 31.09375 -21.15625 "/>
      </g>
    </g>
  </g>
  <g fill="#5eb23f" fill-opacity="1">
    <g transform="translate(326.436458, 217.382834)">
      <g>
        <path d="M 15.90625 -52.890625 L 15.90625 0 L 3.84375 0 L 3.84375 -52.890625 Z M 15.90625 -52.890625 "/>
      </g>
    </g>
  </g>
</svg>